<svg xmlns="http://www.w3.org/2000/svg" viewBox="0 0 24 24" fill="none" stroke="#c9943c" stroke-width="1.6" stroke-linecap="round" stroke-linejoin="round">
  <path d="M12 22V8"/>
  <path d="M12 8 C10 8 8 6.5 8 4.5 C10 4.5 12 6 12 8 Z"/>
  <path d="M12 8 C14 8 16 6.5 16 4.5 C14 4.5 12 6 12 8 Z"/>
  <path d="M12 13 C10 13 8 11.5 8 9.5 C10 9.5 12 11 12 13 Z"/>
  <path d="M12 13 C14 13 16 11.5 16 9.5 C14 9.5 12 11 12 13 Z"/>
  <path d="M12 18 C10 18 8 16.5 8 14.5 C10 14.5 12 16 12 18 Z"/>
  <path d="M12 18 C14 18 16 16.5 16 14.5 C14 14.5 12 16 12 18 Z"/>
</svg>
